<svg xmlns="http://www.w3.org/2000/svg" version="1.0" preserveAspectRatio="xMidYMid meet" viewBox="65.28 272.16 734.72 104.58">

<g transform="translate(0.000000,650.000000) scale(0.100000,-0.100000)" fill="#133987" stroke="none" data-darkreader-inline-fill="" data-darkreader-inline-stroke="" style="--darkreader-inline-fill: #405378; --darkreader-inline-stroke: none;">
<path d="M1125 3776 c-5 -2 -36 -9 -67 -16 -32 -6 -58 -15 -58 -19 0 -4 63 -25 140 -46 77 -21 140 -40 140 -42 0 -2 -31 -41 -70 -85 -63 -73 -80 -98 -65 -98 6 0 475 -128 494 -135 9 -4 -3 -25 -41 -68 -29 -34 -77 -89 -105 -122 l-51 -60 23 -115 c12 -63 21 -117 19 -118 -4 -5 -116 19 -134 28 -9 5 -25 55 -41 130 l-26 121 40 47 c23 26 47 54 54 63 13 15 9 18 -37 29 l-50 12 -48 -52 c-26 -29 -50 -59 -55 -66 -4 -7 2 -63 14 -124 12 -61 19 -113 16 -116 -3 -4 -38 1 -76 11 l-70 17 -15 66 c-8 37 -20 93 -27 124 l-12 57 57 64 57 65 -52 12 c-51 12 -51 12 -86 -21 -77 -74 -76 -73 -54 -205 11 -65 19 -120 16 -122 -7 -7 -134 30 -144 42 -8 11 -51 204 -51 231 0 8 57 80 126 160 70 80 125 148 123 150 -2 2 -47 15 -99 30 l-94 28 -40 -44 c-57 -64 -104 -170 -118 -264 -55 -384 335 -696 698 -560 135 51 228 135 289 260 101 209 60 439 -108 607 -56 55 -112 90 -193 117 -55 18 -195 36 -219 27z" fill="#133987" data-darkreader-inline-fill="" style="--darkreader-inline-fill: #405378;"/>
<path d="M2086 3630 c-15 -5 -37 -17 -48 -27 -47 -42 -48 -54 -48 -393 l0 -320 60 0 60 0 0 310 c0 268 2 311 15 316 8 4 22 1 30 -6 13 -11 15 -60 15 -316 l0 -304 60 0 60 0 2 312 c3 297 4 313 22 316 10 2 22 -2 27 -10 5 -7 9 -149 9 -315 l0 -303 60 0 60 0 0 298 c0 182 -4 312 -11 337 -24 87 -103 129 -188 101 -41 -13 -52 -13 -86 -1 -45 16 -59 17 -99 5z" fill="#133987" data-darkreader-inline-fill="" style="--darkreader-inline-fill: #405378;"/>
<path d="M2647 3626 c-21 -8 -47 -22 -59 -33 -47 -42 -48 -54 -48 -388 l0 -315 60 0 60 0 0 60 0 60 45 0 45 0 0 -60 0 -60 60 0 60 0 0 298 c0 164 -5 313 -10 332 -13 46 -65 95 -115 109 -49 13 -51 13 -98 -3z m87 -122 c13 -13 16 -45 16 -195 l0 -179 -45 0 -45 0 0 183 c0 189 4 207 41 207 10 0 25 -7 33 -16z" fill="#133987" data-darkreader-inline-fill="" style="--darkreader-inline-fill: #405378;"/>
<path d="M2930 3265 l0 -375 95 0 c63 0 105 5 123 14 38 20 78 65 96 108 30 71 15 187 -29 228 l-23 21 25 44 c47 84 40 201 -14 266 -42 49 -95 69 -190 69 l-83 0 0 -375z m175 220 c25 -24 34 -81 19 -120 -6 -16 -54 -45 -74 -45 -11 0 -15 172 -3 183 13 13 34 7 58 -18z m9 -326 c22 -17 26 -28 26 -73 0 -60 -19 -86 -66 -89 l-29 -2 -3 93 c-3 91 -3 92 21 92 13 0 36 -9 51 -21z" fill="#133987" data-darkreader-inline-fill="" style="--darkreader-inline-fill: #405378;"/>
<path d="M4510 3265 l0 -375 60 0 60 0 0 155 0 155 35 0 35 0 0 -155 0 -155 60 0 60 0 -2 373 -3 372 -57 3 -58 3 0 -161 0 -160 -35 0 -35 0 0 160 0 160 -60 0 -60 0 0 -375z" fill="#133987" data-darkreader-inline-fill="" style="--darkreader-inline-fill: #405378;"/>
<path d="M4900 3265 l0 -375 60 0 60 0 -2 373 -3 372 -57 3 -58 3 0 -376z" fill="#133987" data-darkreader-inline-fill="" style="--darkreader-inline-fill: #405378;"/>
<path d="M5316 3630 c-15 -5 -37 -17 -48 -27 -47 -42 -48 -54 -48 -393 l0 -320 60 0 60 0 0 310 c0 268 2 311 15 316 8 4 22 1 30 -6 13 -11 15 -60 15 -316 l0 -304 60 0 60 0 2 312 c3 297 4 313 22 316 10 2 22 -2 27 -10 5 -7 9 -149 9 -315 l0 -303 55 0 55 0 0 323 c0 302 -1 324 -20 354 -10 18 -31 40 -46 49 -30 20 -109 23 -143 5 -16 -9 -31 -8 -66 4 -51 17 -57 17 -99 5z" fill="#133987" data-darkreader-inline-fill="" style="--darkreader-inline-fill: #405378;"/>
<path d="M7657 3626 c-4 -10 -7 -179 -7 -377 l0 -359 60 0 60 0 0 112 c0 72 3 109 10 102 5 -5 29 -54 53 -109 l43 -100 62 -3 c34 -2 62 1 62 5 0 4 -31 79 -68 166 l-69 158 48 47 c79 79 89 176 26 269 -43 63 -101 93 -199 100 -65 5 -76 3 -81 -11z m193 -166 c13 -24 13 -66 0 -91 -12 -21 -64 -51 -74 -42 -8 8 -8 158 0 166 10 10 64 -14 74 -33z" fill="#133987" data-darkreader-inline-fill="" style="--darkreader-inline-fill: #405378;"/>
<path d="M3312 3311 c3 -305 4 -321 24 -347 40 -54 70 -69 139 -69 71 0 103 17 143 75 22 32 22 38 22 346 l0 314 -60 0 -60 0 0 -305 0 -305 -27 -6 c-58 -15 -58 -15 -61 315 l-2 301 -61 0 -60 0 3 -319z" fill="#133987" data-darkreader-inline-fill="" style="--darkreader-inline-fill: #405378;"/>
<path d="M3955 3617 c-189 -63 -299 -258 -251 -447 40 -154 162 -262 315 -278 126 -14 216 15 305 97 48 46 101 134 107 181 4 24 1 25 -53 28 l-57 3 -19 -43 c-68 -150 -258 -201 -384 -104 -130 99 -142 275 -27 387 128 125 332 86 409 -77 l20 -44 55 0 c52 0 55 1 55 25 0 37 -45 120 -93 172 -23 25 -68 59 -102 76 -52 26 -73 31 -150 34 -56 2 -105 -2 -130 -10z" fill="#133987" data-darkreader-inline-fill="" style="--darkreader-inline-fill: #405378;"/>
<path d="M6023 3616 c-103 -33 -180 -105 -230 -213 -24 -49 -28 -71 -27 -145 0 -82 2 -92 39 -165 47 -91 111 -149 202 -183 87 -32 216 -26 296 14 68 35 146 114 178 182 21 42 24 64 24 154 0 96 -2 110 -28 159 -40 75 -106 143 -174 176 -48 24 -73 29 -148 32 -57 2 -105 -2 -132 -11z m222 -126 c159 -70 198 -285 74 -409 -120 -121 -311 -96 -401 51 -130 211 98 460 327 358z" fill="#133987" data-darkreader-inline-fill="" style="--darkreader-inline-fill: #405378;"/>
<path d="M6500 3575 l0 -54 58 -3 57 -3 3 -312 2 -313 55 0 55 0 0 299 c0 165 3 306 6 315 4 12 20 16 55 16 l49 0 0 55 0 55 -170 0 -170 0 0 -55z" fill="#133987" data-darkreader-inline-fill="" style="--darkreader-inline-fill: #405378;"/>
<path d="M7095 3613 c-115 -42 -199 -128 -235 -242 -57 -181 21 -357 200 -452 40 -21 58 -24 155 -24 102 0 114 2 168 29 71 36 140 108 175 184 23 49 27 70 27 152 0 82 -4 103 -27 152 -35 76 -100 143 -173 181 -51 26 -73 31 -150 34 -68 3 -102 -1 -140 -14z m230 -122 c54 -24 121 -99 135 -153 15 -53 8 -154 -13 -194 -43 -83 -136 -139 -232 -138 -224 3 -335 256 -186 426 71 81 190 105 296 59z" fill="#133987" data-darkreader-inline-fill="" style="--darkreader-inline-fill: #405378;"/>
</g>
</svg>