<?xml version="1.0" standalone="no"?>
<!DOCTYPE svg PUBLIC "-//W3C//DTD SVG 1.0//EN" "http://www.w3.org/TR/2001/REC-SVG-20010904/DTD/svg10.dtd">
<svg xmlns="http://www.w3.org/2000/svg" xmlns:xlink="http://www.w3.org/1999/xlink" id="body_1" width="2048" height="1536">

<g transform="matrix(2.7874565 0 0 2.7874565 -181.18468 486.29956)">
	<g transform="matrix(0.1 0 -0 -0.1 0 650)">
        <path d="M1125 3776C 1120 3774 1089 3767 1058 3760C 1026 3754 1000 3745 1000 3741C 1000 3737 1063 3716 1140 3695C 1217 3674 1280 3655 1280 3653C 1280 3651 1249 3612 1210 3568C 1147 3495 1130 3470 1145 3470C 1151 3470 1620 3342 1639 3335C 1648 3331 1636 3310 1598 3267C 1569 3233 1521 3178 1493 3145L1493 3145L1442 3085L1465 2970C 1477 2907 1486 2853 1484 2852C 1480 2847 1368 2871 1350 2880C 1341 2885 1325 2935 1309 3010L1309 3010L1283 3131L1323 3178C 1346 3204 1370 3232 1377 3241C 1390 3256 1386 3259 1340 3270L1340 3270L1290 3282L1242 3230C 1216 3201 1192 3171 1187 3164C 1183 3157 1189 3101 1201 3040C 1213 2979 1220 2927 1217 2924C 1214 2920 1179 2925 1141 2935L1141 2935L1071 2952L1056 3018C 1048 3055 1036 3111 1029 3142L1029 3142L1017 3199L1074 3263L1131 3328L1079 3340C 1028 3352 1028 3352 993 3319C 916 3245 917 3246 939 3114C 950 3049 958 2994 955 2992C 948 2985 821 3022 811 3034C 803 3045 760 3238 760 3265C 760 3273 817 3345 886 3425C 956 3505 1011 3573 1009 3575C 1007 3577 962 3590 910 3605L910 3605L816 3633L776 3589C 719 3525 672 3419 658 3325C 603 2941 993 2629 1356 2765C 1491 2816 1584 2900 1645 3025C 1746 3234 1705 3464 1537 3632C 1481 3687 1425 3722 1344 3749C 1289 3767 1149 3785 1125 3776z" stroke="none" fill="#133987" fill-rule="nonzero" />
        <path d="M2086 3630C 2071 3625 2049 3613 2038 3603C 1991 3561 1990 3549 1990 3210L1990 3210L1990 2890L2050 2890L2110 2890L2110 3200C 2110 3468 2112 3511 2125 3516C 2133 3520 2147 3517 2155 3510C 2168 3499 2170 3450 2170 3194L2170 3194L2170 2890L2230 2890L2290 2890L2292 3202C 2295 3499 2296 3515 2314 3518C 2324 3520 2336 3516 2341 3508C 2346 3501 2350 3359 2350 3193L2350 3193L2350 2890L2410 2890L2470 2890L2470 3188C 2470 3370 2466 3500 2459 3525C 2435 3612 2356 3654 2271 3626C 2230 3613 2219 3613 2185 3625C 2140 3641 2126 3642 2086 3630z" stroke="none" fill="#133987" fill-rule="nonzero" />
        <path d="M2647 3626C 2626 3618 2600 3604 2588 3593C 2541 3551 2540 3539 2540 3205L2540 3205L2540 2890L2600 2890L2660 2890L2660 2950L2660 3010L2705 3010L2750 3010L2750 2950L2750 2890L2810 2890L2870 2890L2870 3188C 2870 3352 2865 3501 2860 3520C 2847 3566 2795 3615 2745 3629C 2696 3642 2694 3642 2647 3626zM2734 3504C 2747 3491 2750 3459 2750 3309L2750 3309L2750 3130L2705 3130L2660 3130L2660 3313C 2660 3502 2664 3520 2701 3520C 2711 3520 2726 3513 2734 3504z" stroke="none" fill="#133987" fill-rule="nonzero" />
        <path d="M2930 3265L2930 2890L3025 2890C 3088 2890 3130 2895 3148 2904C 3186 2924 3226 2969 3244 3012C 3274 3083 3259 3199 3215 3240L3215 3240L3192 3261L3217 3305C 3264 3389 3257 3506 3203 3571C 3161 3620 3108 3640 3013 3640L3013 3640L2930 3640L2930 3265zM3105 3485C 3130 3461 3139 3404 3124 3365C 3118 3349 3070 3320 3050 3320C 3039 3320 3035 3492 3047 3503C 3060 3516 3081 3510 3105 3485zM3114 3159C 3136 3142 3140 3131 3140 3086C 3140 3026 3121 3000 3074 2997L3074 2997L3045 2995L3042 3088C 3039 3179 3039 3180 3063 3180C 3076 3180 3099 3171 3114 3159z" stroke="none" fill="#133987" fill-rule="nonzero" />
        <path d="M4510 3265L4510 2890L4570 2890L4630 2890L4630 3045L4630 3200L4665 3200L4700 3200L4700 3045L4700 2890L4760 2890L4820 2890L4818 3263L4815 3635L4758 3638L4700 3641L4700 3480L4700 3320L4665 3320L4630 3320L4630 3480L4630 3640L4570 3640L4510 3640L4510 3265z" stroke="none" fill="#133987" fill-rule="nonzero" />
        <path d="M4900 3265L4900 2890L4960 2890L5020 2890L5018 3263L5015 3635L4958 3638L4900 3641L4900 3265z" stroke="none" fill="#133987" fill-rule="nonzero" />
        <path d="M5316 3630C 5301 3625 5279 3613 5268 3603C 5221 3561 5220 3549 5220 3210L5220 3210L5220 2890L5280 2890L5340 2890L5340 3200C 5340 3468 5342 3511 5355 3516C 5363 3520 5377 3517 5385 3510C 5398 3499 5400 3450 5400 3194L5400 3194L5400 2890L5460 2890L5520 2890L5522 3202C 5525 3499 5526 3515 5544 3518C 5554 3520 5566 3516 5571 3508C 5576 3501 5580 3359 5580 3193L5580 3193L5580 2890L5635 2890L5690 2890L5690 3213C 5690 3515 5689 3537 5670 3567C 5660 3585 5639 3607 5624 3616C 5594 3636 5515 3639 5481 3621C 5465 3612 5450 3613 5415 3625C 5364 3642 5358 3642 5316 3630z" stroke="none" fill="#133987" fill-rule="nonzero" />
        <path d="M7657 3626C 7653 3616 7650 3447 7650 3249L7650 3249L7650 2890L7710 2890L7770 2890L7770 3002C 7770 3074 7773 3111 7780 3104C 7785 3099 7809 3050 7833 2995L7833 2995L7876 2895L7938 2892C 7972 2890 8000 2893 8000 2897C 8000 2901 7969 2976 7932 3063L7932 3063L7863 3221L7911 3268C 7990 3347 8000 3444 7937 3537C 7894 3600 7836 3630 7738 3637C 7673 3642 7662 3640 7657 3626zM7850 3460C 7863 3436 7863 3394 7850 3369C 7838 3348 7786 3318 7776 3327C 7768 3335 7768 3485 7776 3493C 7786 3503 7840 3479 7850 3460z" stroke="none" fill="#133987" fill-rule="nonzero" />
        <path d="M3312 3311C 3315 3006 3316 2990 3336 2964C 3376 2910 3406 2895 3475 2895C 3546 2895 3578 2912 3618 2970C 3640 3002 3640 3008 3640 3316L3640 3316L3640 3630L3580 3630L3520 3630L3520 3325L3520 3020L3493 3014C 3435 2999 3435 2999 3432 3329L3432 3329L3430 3630L3369 3630L3309 3630L3312 3311z" stroke="none" fill="#133987" fill-rule="nonzero" />
        <path d="M3955 3617C 3766 3554 3656 3359 3704 3170C 3744 3016 3866 2908 4019 2892C 4145 2878 4235 2907 4324 2989C 4372 3035 4425 3123 4431 3170C 4435 3194 4432 3195 4378 3198L4378 3198L4321 3201L4302 3158C 4234 3008 4044 2957 3918 3054C 3788 3153 3776 3329 3891 3441C 4019 3566 4223 3527 4300 3364L4300 3364L4320 3320L4375 3320C 4427 3320 4430 3321 4430 3345C 4430 3382 4385 3465 4337 3517C 4314 3542 4269 3576 4235 3593C 4183 3619 4162 3624 4085 3627C 4029 3629 3980 3625 3955 3617z" stroke="none" fill="#133987" fill-rule="nonzero" />
        <path d="M6023 3616C 5920 3583 5843 3511 5793 3403C 5769 3354 5765 3332 5766 3258C 5766 3176 5768 3166 5805 3093C 5852 3002 5916 2944 6007 2910C 6094 2878 6223 2884 6303 2924C 6371 2959 6449 3038 6481 3106C 6502 3148 6505 3170 6505 3260C 6505 3356 6503 3370 6477 3419C 6437 3494 6371 3562 6303 3595C 6255 3619 6230 3624 6155 3627C 6098 3629 6050 3625 6023 3616zM6245 3490C 6404 3420 6443 3205 6319 3081C 6199 2960 6008 2985 5918 3132C 5788 3343 6016 3592 6245 3490z" stroke="none" fill="#133987" fill-rule="nonzero" />
        <path d="M6500 3575L6500 3521L6558 3518L6615 3515L6618 3203L6620 2890L6675 2890L6730 2890L6730 3189C 6730 3354 6733 3495 6736 3504C 6740 3516 6756 3520 6791 3520L6791 3520L6840 3520L6840 3575L6840 3630L6670 3630L6500 3630L6500 3575z" stroke="none" fill="#133987" fill-rule="nonzero" />
        <path d="M7095 3613C 6980 3571 6896 3485 6860 3371C 6803 3190 6881 3014 7060 2919C 7100 2898 7118 2895 7215 2895C 7317 2895 7329 2897 7383 2924C 7454 2960 7523 3032 7558 3108C 7581 3157 7585 3178 7585 3260C 7585 3342 7581 3363 7558 3412C 7523 3488 7458 3555 7385 3593C 7334 3619 7312 3624 7235 3627C 7167 3630 7133 3626 7095 3613zM7325 3491C 7379 3467 7446 3392 7460 3338C 7475 3285 7468 3184 7447 3144C 7404 3061 7311 3005 7215 3006C 6991 3009 6880 3262 7029 3432C 7100 3513 7219 3537 7325 3491z" stroke="none" fill="#133987" fill-rule="nonzero" />
	</g>
</g>
</svg>