<?xml version="1.0" encoding="UTF-8"?>
<svg xmlns="http://www.w3.org/2000/svg" xmlns:xlink="http://www.w3.org/1999/xlink" width="1047px" height="150px" viewBox="0 0 1050 150" version="1.1">
<g id="surface1">
<path style=" stroke:none;fill-rule:nonzero;fill:rgb(7.45098%,22.352941%,52.941176%);fill-opacity:1;" d="M 67.484375 0.613281 C 66.769531 0.898438 62.339844 1.902344 57.90625 2.902344 C 53.335938 3.757812 49.617188 5.042969 49.617188 5.617188 C 49.617188 6.1875 58.621094 9.1875 69.625 12.191406 C 80.628906 15.191406 89.632812 17.90625 89.632812 18.191406 C 89.632812 18.476562 85.203125 24.050781 79.628906 30.339844 C 70.625 40.773438 68.199219 44.34375 70.339844 44.34375 C 71.199219 44.34375 138.222656 62.636719 140.9375 63.636719 C 142.226562 64.210938 140.511719 67.210938 135.078125 73.355469 C 130.9375 78.214844 124.074219 86.074219 120.074219 90.792969 L 112.785156 99.367188 L 116.074219 115.800781 C 117.789062 124.804688 119.074219 132.523438 118.789062 132.664062 C 118.214844 133.378906 102.210938 129.949219 99.636719 128.664062 C 98.351562 127.949219 96.066406 120.804688 93.777344 110.085938 L 90.0625 92.792969 L 95.78125 86.074219 C 99.066406 82.359375 102.496094 78.359375 103.496094 77.070312 C 105.355469 74.929688 104.78125 74.5 98.207031 72.929688 L 91.0625 71.210938 L 84.203125 78.644531 C 80.488281 82.789062 77.058594 87.074219 76.34375 88.078125 C 75.773438 89.078125 76.628906 97.078125 78.34375 105.796875 C 80.058594 114.515625 81.058594 121.945312 80.628906 122.375 C 80.203125 122.945312 75.199219 122.230469 69.769531 120.804688 L 59.765625 118.375 L 57.621094 108.941406 C 56.480469 103.652344 54.765625 95.652344 53.761719 91.21875 L 52.046875 83.074219 L 60.195312 73.929688 L 68.339844 64.640625 L 60.910156 62.925781 C 53.621094 61.210938 53.621094 61.210938 48.617188 65.925781 C 37.613281 76.5 37.757812 76.359375 40.902344 95.222656 C 42.472656 104.511719 43.617188 112.371094 43.1875 112.65625 C 42.1875 113.65625 24.039062 108.371094 22.609375 106.65625 C 21.464844 105.082031 15.320312 77.5 15.320312 73.640625 C 15.320312 72.5 23.464844 62.210938 33.328125 50.777344 C 43.332031 39.34375 51.191406 29.625 50.90625 29.339844 C 50.621094 29.054688 44.1875 27.195312 36.757812 25.050781 L 23.324219 21.050781 L 17.605469 27.339844 C 9.460938 36.484375 2.742188 51.632812 0.742188 65.066406 C -7.117188 119.945312 48.617188 164.535156 100.496094 145.097656 C 119.789062 137.808594 133.078125 125.804688 141.796875 107.941406 C 156.230469 78.074219 150.371094 45.203125 126.363281 21.195312 C 118.359375 13.332031 110.355469 8.332031 98.78125 4.472656 C 90.921875 1.902344 70.914062 -0.671875 67.484375 0.613281 Z M 67.484375 0.613281 "/>
<path style=" stroke:none;fill-rule:nonzero;fill:rgb(7.45098%,22.352941%,52.941176%);fill-opacity:1;" d="M 204.820312 21.480469 C 202.675781 22.195312 199.53125 23.910156 197.960938 25.339844 C 191.246094 31.339844 191.101562 33.054688 191.101562 81.503906 L 191.101562 127.234375 L 208.25 127.234375 L 208.25 82.929688 C 208.25 44.632812 208.535156 38.484375 210.394531 37.773438 C 211.539062 37.199219 213.539062 37.628906 214.683594 38.628906 C 216.539062 40.199219 216.824219 47.203125 216.824219 83.789062 L 216.824219 127.234375 L 233.976562 127.234375 L 234.261719 82.644531 C 234.6875 40.199219 234.832031 37.914062 237.40625 37.484375 C 238.832031 37.199219 240.546875 37.773438 241.261719 38.914062 C 241.976562 39.914062 242.550781 60.207031 242.550781 83.933594 L 242.550781 127.234375 L 259.699219 127.234375 L 259.699219 84.648438 C 259.699219 58.636719 259.128906 40.058594 258.125 36.484375 C 254.695312 24.050781 243.40625 18.050781 231.257812 22.050781 C 225.398438 23.910156 223.828125 23.910156 218.96875 22.195312 C 212.539062 19.90625 210.539062 19.765625 204.820312 21.480469 Z M 204.820312 21.480469 "/>
<path style=" stroke:none;fill-rule:nonzero;fill:rgb(7.45098%,22.352941%,52.941176%);fill-opacity:1;" d="M 284.996094 22.050781 C 281.992188 23.195312 278.277344 25.195312 276.5625 26.765625 C 269.84375 32.769531 269.703125 34.484375 269.703125 82.21875 L 269.703125 127.234375 L 286.851562 127.234375 L 286.851562 110.085938 L 299.714844 110.085938 L 299.714844 127.234375 L 316.863281 127.234375 L 316.863281 84.648438 C 316.863281 61.210938 316.148438 39.914062 315.433594 37.199219 C 313.578125 30.625 306.144531 23.625 299 21.621094 C 291.996094 19.765625 291.710938 19.765625 284.996094 22.050781 Z M 297.425781 39.488281 C 299.285156 41.34375 299.714844 45.917969 299.714844 67.355469 L 299.714844 92.933594 L 286.851562 92.933594 L 286.851562 66.78125 C 286.851562 39.773438 287.421875 37.199219 292.710938 37.199219 C 294.140625 37.199219 296.285156 38.199219 297.425781 39.488281 Z M 297.425781 39.488281 "/>
<path style=" stroke:none;fill-rule:nonzero;fill:rgb(7.45098%,22.352941%,52.941176%);fill-opacity:1;" d="M 325.4375 73.640625 L 325.4375 127.234375 L 339.015625 127.234375 C 348.019531 127.234375 354.019531 126.519531 356.59375 125.234375 C 362.023438 122.375 367.738281 115.945312 370.3125 109.800781 C 374.601562 99.652344 372.457031 83.074219 366.167969 77.214844 L 362.882812 74.214844 L 366.453125 67.925781 C 373.171875 55.921875 372.171875 39.199219 364.453125 29.910156 C 358.449219 22.910156 350.875 20.050781 337.300781 20.050781 L 325.4375 20.050781 Z M 350.449219 42.203125 C 354.019531 45.632812 355.308594 53.777344 353.164062 59.351562 C 352.304688 61.636719 345.445312 65.78125 342.585938 65.78125 C 341.015625 65.78125 340.445312 41.203125 342.160156 39.628906 C 344.015625 37.773438 347.019531 38.628906 350.449219 42.203125 Z M 351.734375 88.789062 C 354.878906 91.21875 355.449219 92.792969 355.449219 99.222656 C 355.449219 107.796875 352.734375 111.515625 346.015625 111.941406 L 341.875 112.226562 L 341.445312 98.9375 C 341.015625 85.933594 341.015625 85.789062 344.445312 85.789062 C 346.304688 85.789062 349.589844 87.074219 351.734375 88.789062 Z M 351.734375 88.789062 "/>
<path style=" stroke:none;fill-rule:nonzero;fill:rgb(7.45098%,22.352941%,52.941176%);fill-opacity:1;" d="M 551.238281 73.640625 L 551.238281 127.234375 L 568.386719 127.234375 L 568.386719 82.929688 L 578.390625 82.929688 L 578.390625 127.234375 L 595.542969 127.234375 L 595.253906 73.929688 L 594.828125 20.765625 L 586.679688 20.335938 L 578.390625 19.90625 L 578.390625 65.78125 L 568.386719 65.78125 L 568.386719 20.050781 L 551.238281 20.050781 Z M 551.238281 73.640625 "/>
<path style=" stroke:none;fill-rule:nonzero;fill:rgb(7.45098%,22.352941%,52.941176%);fill-opacity:1;" d="M 606.972656 73.640625 L 606.972656 127.234375 L 624.125 127.234375 L 623.835938 73.929688 L 623.410156 20.765625 L 615.261719 20.335938 L 606.972656 19.90625 Z M 606.972656 73.640625 "/>
<path style=" stroke:none;fill-rule:nonzero;fill:rgb(7.45098%,22.352941%,52.941176%);fill-opacity:1;" d="M 666.425781 21.480469 C 664.28125 22.195312 661.136719 23.910156 659.566406 25.339844 C 652.847656 31.339844 652.707031 33.054688 652.707031 81.503906 L 652.707031 127.234375 L 669.855469 127.234375 L 669.855469 82.929688 C 669.855469 44.632812 670.140625 38.484375 672 37.773438 C 673.140625 37.199219 675.144531 37.628906 676.285156 38.628906 C 678.144531 40.199219 678.429688 47.203125 678.429688 83.789062 L 678.429688 127.234375 L 695.578125 127.234375 L 695.863281 82.644531 C 696.292969 40.199219 696.4375 37.914062 699.007812 37.484375 C 700.4375 37.199219 702.152344 37.773438 702.867188 38.914062 C 703.582031 39.914062 704.152344 60.207031 704.152344 83.933594 L 704.152344 127.234375 L 719.875 127.234375 L 719.875 81.074219 C 719.875 37.914062 719.730469 34.769531 717.015625 30.484375 C 715.585938 27.910156 712.585938 24.765625 710.441406 23.480469 C 706.15625 20.621094 694.863281 20.195312 690.003906 22.765625 C 687.71875 24.050781 685.574219 23.910156 680.574219 22.195312 C 673.285156 19.765625 672.425781 19.765625 666.425781 21.480469 Z M 666.425781 21.480469 "/>
<path style=" stroke:none;fill-rule:nonzero;fill:rgb(7.45098%,22.352941%,52.941176%);fill-opacity:1;" d="M 1000.980469 22.050781 C 1000.410156 23.480469 999.980469 47.632812 999.980469 75.929688 L 999.980469 127.234375 L 1017.128906 127.234375 L 1017.128906 111.226562 C 1017.128906 100.9375 1017.558594 95.652344 1018.558594 96.652344 C 1019.273438 97.367188 1022.703125 104.367188 1026.132812 112.226562 L 1032.277344 126.519531 L 1041.140625 126.949219 C 1046 127.234375 1050 126.804688 1050 126.234375 C 1050 125.664062 1045.570312 114.945312 1040.28125 102.511719 L 1030.421875 79.929688 L 1037.28125 73.214844 C 1048.570312 61.921875 1050 48.0625 1040.996094 34.769531 C 1034.851562 25.765625 1026.5625 21.480469 1012.558594 20.480469 C 1003.269531 19.765625 1001.695312 20.050781 1000.980469 22.050781 Z M 1028.5625 45.773438 C 1030.421875 49.203125 1030.421875 55.207031 1028.5625 58.78125 C 1026.847656 61.78125 1019.417969 66.066406 1017.988281 64.78125 C 1016.84375 63.636719 1016.84375 42.203125 1017.988281 41.058594 C 1019.417969 39.628906 1027.132812 43.058594 1028.5625 45.773438 Z M 1028.5625 45.773438 "/>
<path style=" stroke:none;fill-rule:nonzero;fill:rgb(7.45098%,22.352941%,52.941176%);fill-opacity:1;" d="M 380.03125 67.070312 C 380.460938 110.65625 380.601562 112.941406 383.460938 116.660156 C 389.175781 124.375 393.464844 126.519531 403.324219 126.519531 C 413.472656 126.519531 418.046875 124.089844 423.761719 115.800781 C 426.90625 111.226562 426.90625 110.371094 426.90625 66.355469 L 426.90625 21.480469 L 409.757812 21.480469 L 409.757812 108.65625 L 405.898438 109.511719 C 397.609375 111.65625 397.609375 111.65625 397.179688 64.496094 L 396.894531 21.480469 L 379.601562 21.480469 Z M 380.03125 67.070312 "/>
<path style=" stroke:none;fill-rule:nonzero;fill:rgb(7.45098%,22.352941%,52.941176%);fill-opacity:1;" d="M 471.921875 23.335938 C 444.914062 32.339844 429.191406 60.207031 436.050781 87.21875 C 441.769531 109.226562 459.203125 124.660156 481.070312 126.949219 C 499.074219 128.949219 511.9375 124.804688 524.65625 113.085938 C 531.515625 106.511719 539.089844 93.9375 539.949219 87.21875 C 540.519531 83.789062 540.089844 83.644531 532.375 83.21875 L 524.226562 82.789062 L 521.511719 88.933594 C 511.796875 110.371094 484.640625 117.660156 466.636719 103.796875 C 448.054688 89.648438 446.339844 64.496094 462.777344 48.488281 C 481.070312 30.625 510.222656 36.199219 521.226562 59.492188 L 524.085938 65.78125 L 531.945312 65.78125 C 539.375 65.78125 539.804688 65.640625 539.804688 62.210938 C 539.804688 56.921875 533.375 45.058594 526.515625 37.628906 C 523.226562 34.054688 516.796875 29.195312 511.9375 26.765625 C 504.507812 23.050781 501.503906 22.335938 490.5 21.910156 C 482.5 21.621094 475.496094 22.195312 471.921875 23.335938 Z M 471.921875 23.335938 "/>
<path style=" stroke:none;fill-rule:nonzero;fill:rgb(7.45098%,22.352941%,52.941176%);fill-opacity:1;" d="M 767.464844 23.480469 C 752.742188 28.195312 741.738281 38.484375 734.59375 53.921875 C 731.164062 60.921875 730.59375 64.066406 730.734375 74.644531 C 730.734375 86.363281 731.019531 87.789062 736.308594 98.222656 C 743.027344 111.226562 752.171875 119.515625 765.175781 124.375 C 777.609375 128.949219 796.046875 128.089844 807.480469 122.375 C 817.195312 117.375 828.34375 106.082031 832.917969 96.367188 C 835.917969 90.363281 836.347656 87.21875 836.347656 74.355469 C 836.347656 60.636719 836.0625 58.636719 832.34375 51.632812 C 826.628906 40.914062 817.195312 31.199219 807.480469 26.480469 C 800.621094 23.050781 797.046875 22.335938 786.328125 21.910156 C 778.183594 21.621094 771.324219 22.195312 767.464844 23.480469 Z M 799.191406 41.488281 C 821.914062 51.492188 827.488281 82.21875 809.765625 99.9375 C 792.617188 117.230469 765.320312 113.65625 752.457031 92.648438 C 733.878906 62.496094 766.464844 26.910156 799.191406 41.488281 Z M 799.191406 41.488281 "/>
<path style=" stroke:none;fill-rule:nonzero;fill:rgb(7.45098%,22.352941%,52.941176%);fill-opacity:1;" d="M 835.632812 29.339844 L 835.632812 37.058594 L 843.921875 37.484375 L 852.066406 37.914062 L 852.496094 82.503906 L 852.78125 127.234375 L 868.503906 127.234375 L 868.503906 84.503906 C 868.503906 60.921875 868.929688 40.773438 869.359375 39.488281 C 869.929688 37.773438 872.21875 37.199219 877.21875 37.199219 L 884.222656 37.199219 L 884.222656 21.480469 L 835.632812 21.480469 Z M 835.632812 29.339844 "/>
<path style=" stroke:none;fill-rule:nonzero;fill:rgb(7.45098%,22.352941%,52.941176%);fill-opacity:1;" d="M 920.664062 23.910156 C 904.230469 29.910156 892.226562 42.203125 887.082031 58.492188 C 878.933594 84.359375 890.082031 109.511719 915.664062 123.089844 C 921.378906 126.089844 923.953125 126.519531 937.8125 126.519531 C 952.390625 126.519531 954.105469 126.234375 961.824219 122.375 C 971.96875 117.230469 981.832031 106.941406 986.832031 96.078125 C 990.121094 89.078125 990.691406 86.074219 990.691406 74.355469 C 990.691406 62.636719 990.121094 59.636719 986.832031 52.632812 C 981.832031 41.773438 972.542969 32.199219 962.109375 26.765625 C 954.820312 23.050781 951.675781 22.335938 940.671875 21.910156 C 930.953125 21.480469 926.09375 22.050781 920.664062 23.910156 Z M 953.535156 41.34375 C 961.25 44.773438 970.828125 55.492188 972.828125 63.210938 C 974.972656 70.785156 973.972656 85.21875 970.96875 90.933594 C 964.824219 102.796875 951.535156 110.800781 937.8125 110.65625 C 905.800781 110.226562 889.9375 74.070312 911.234375 49.777344 C 921.378906 38.199219 938.386719 34.769531 953.535156 41.34375 Z M 953.535156 41.34375 "/>
</g>
</svg>
